<?xml version="1.0" encoding="UTF-8" standalone="no"?>
<!DOCTYPE svg PUBLIC "-//W3C//DTD SVG 1.1//EN"
 "http://www.w3.org/Graphics/SVG/1.1/DTD/svg11.dtd">
<!-- Generated by graphviz version 2.47.0 (20210316.0004)
 -->
<!-- Title: dependencies Pages: 1 -->
<svg width="1009pt" height="431pt"
 viewBox="0.00 0.00 1009.00 431.00" xmlns="http://www.w3.org/2000/svg" xmlns:xlink="http://www.w3.org/1999/xlink">
<g id="graph0" class="graph" transform="scale(1 1) rotate(0) translate(4 427)">
<title>dependencies</title>
<polygon fill="white" stroke="transparent" points="-4,4 -4,-427 1005,-427 1005,4 -4,4"/>
<text text-anchor="start" x="479.51" y="-42.4" font-family="Times-12" font-weight="bold" font-size="14.00">Legend</text>
<polygon fill="#ffffb3" stroke="transparent" points="266.5,-10 266.5,-30 286.5,-30 286.5,-10 266.5,-10"/>
<text text-anchor="start" x="290.13" y="-15.4" font-family="Times-12" font-size="14.00"> &#160;Declarations</text>
<polygon fill="#8dd3c7" stroke="transparent" points="379.5,-10 379.5,-30 399.5,-30 399.5,-10 379.5,-10"/>
<text text-anchor="start" x="403.23" y="-15.4" font-family="Times-12" font-size="14.00"> &#160;Module</text>
<polygon fill="#80b1d3" stroke="transparent" points="465.5,-10 465.5,-30 485.5,-30 485.5,-10 465.5,-10"/>
<text text-anchor="start" x="489.28" y="-15.4" font-family="Times-12" font-size="14.00"> &#160;Bootstrap</text>
<polygon fill="#fdb462" stroke="transparent" points="562.5,-10 562.5,-30 582.5,-30 582.5,-10 562.5,-10"/>
<text text-anchor="start" x="586.17" y="-15.4" font-family="Times-12" font-size="14.00"> &#160;Providers</text>
<polygon fill="#fb8072" stroke="transparent" points="658.5,-10 658.5,-30 678.5,-30 678.5,-10 658.5,-10"/>
<text text-anchor="start" x="682.23" y="-15.4" font-family="Times-12" font-size="14.00"> &#160;Exports</text>
<g id="clust1" class="cluster">
<title>cluster_AppModule</title>
<polygon fill="none" stroke="black" stroke-dasharray="1,5" points="298,-146 298,-415 695,-415 695,-146 298,-146"/>
</g>
<g id="clust3" class="cluster">
<title>cluster_AppModule_imports</title>
<polygon fill="none" stroke="black" points="444,-154 444,-350 687,-350 687,-154 444,-154"/>
</g>
<g id="clust6" class="cluster">
<title>cluster_AppModule_providers</title>
<polygon fill="none" stroke="black" points="306,-298 306,-350 436,-350 436,-298 306,-298"/>
</g>
<g id="clust7" class="cluster">
<title>cluster_AuthModule</title>
<polygon fill="none" stroke="black" stroke-dasharray="1,5" points="8,-146 8,-214 290,-214 290,-146 8,-146"/>
</g>
<g id="clust12" class="cluster">
<title>cluster_AuthModule_providers</title>
<polygon fill="none" stroke="black" points="16,-154 16,-206 282,-206 282,-154 16,-154"/>
</g>
<g id="clust13" class="cluster">
<title>cluster_PrismaModule</title>
<polygon fill="none" stroke="black" stroke-dasharray="1,5" points="703,-222 703,-290 993,-290 993,-222 703,-222"/>
</g>
<g id="clust16" class="cluster">
<title>cluster_PrismaModule_exports</title>
<polygon fill="none" stroke="black" points="869,-230 869,-282 985,-282 985,-230 869,-230"/>
</g>
<g id="clust18" class="cluster">
<title>cluster_PrismaModule_providers</title>
<polygon fill="none" stroke="black" points="711,-230 711,-282 861,-282 861,-230 711,-230"/>
</g>
<g id="clust19" class="cluster">
<title>cluster_ScheduleModule</title>
<polygon fill="none" stroke="black" stroke-dasharray="1,5" points="533,-70 533,-138 715,-138 715,-70 533,-70"/>
</g>
<g id="clust24" class="cluster">
<title>cluster_ScheduleModule_providers</title>
<polygon fill="none" stroke="black" points="541,-78 541,-130 707,-130 707,-78 541,-78"/>
</g>
<g id="clust25" class="cluster">
<title>cluster_UserModule</title>
<polygon fill="none" stroke="black" stroke-dasharray="1,5" points="142,-222 142,-290 290,-290 290,-222 142,-222"/>
</g>
<g id="clust30" class="cluster">
<title>cluster_UserModule_providers</title>
<polygon fill="none" stroke="black" points="150,-230 150,-282 282,-282 282,-230 150,-230"/>
</g>
<!-- AuthModule -->
<g id="node1" class="node">
<title>AuthModule</title>
<polygon fill="#8dd3c7" stroke="black" points="539.55,-274 536.55,-278 515.55,-278 512.55,-274 452.45,-274 452.45,-238 539.55,-238 539.55,-274"/>
<text text-anchor="middle" x="496" y="-251.8" font-family="Times,serif" font-size="14.00">AuthModule</text>
</g>
<!-- UserModule -->
<g id="node4" class="node">
<title>UserModule</title>
<polygon fill="#8dd3c7" stroke="black" points="538.98,-342 535.98,-346 514.98,-346 511.98,-342 453.02,-342 453.02,-306 538.98,-306 538.98,-342"/>
<text text-anchor="middle" x="496" y="-319.8" font-family="Times,serif" font-size="14.00">UserModule</text>
</g>
<!-- AuthModule&#45;&gt;UserModule -->
<g id="edge12" class="edge">
<title>AuthModule&#45;&gt;UserModule</title>
<path fill="none" stroke="black" d="M496,-274.22C496,-274.22 496,-295.73 496,-295.73"/>
<polygon fill="black" stroke="black" points="492.5,-295.73 496,-305.73 499.5,-295.73 492.5,-295.73"/>
</g>
<!-- AppModule -->
<g id="node5" class="node">
<title>AppModule</title>
<polygon fill="#8dd3c7" stroke="black" points="599.66,-407 596.66,-411 575.66,-411 572.66,-407 516.34,-407 516.34,-371 599.66,-371 599.66,-407"/>
<text text-anchor="middle" x="558" y="-384.8" font-family="Times,serif" font-size="14.00">AppModule</text>
</g>
<!-- AuthModule&#45;&gt;AppModule -->
<g id="edge1" class="edge">
<title>AuthModule&#45;&gt;AppModule</title>
<path fill="none" stroke="black" d="M539.86,-250C541.98,-250 543.25,-250 543.25,-250 543.25,-250 543.25,-360.83 543.25,-360.83"/>
<polygon fill="black" stroke="black" points="539.75,-360.83 543.25,-370.83 546.75,-360.83 539.75,-360.83"/>
</g>
<!-- PrismaModule -->
<g id="node2" class="node">
<title>PrismaModule</title>
<polygon fill="#8dd3c7" stroke="black" points="550.43,-198 547.43,-202 526.43,-202 523.43,-198 451.57,-198 451.57,-162 550.43,-162 550.43,-198"/>
<text text-anchor="middle" x="501" y="-175.8" font-family="Times,serif" font-size="14.00">PrismaModule</text>
</g>
<!-- PrismaModule&#45;&gt;AuthModule -->
<g id="edge6" class="edge">
<title>PrismaModule&#45;&gt;AuthModule</title>
<path fill="none" stroke="black" d="M510.59,-198.01C510.59,-198.01 510.59,-227.85 510.59,-227.85"/>
<polygon fill="black" stroke="black" points="507.09,-227.85 510.59,-237.85 514.09,-227.85 507.09,-227.85"/>
</g>
<!-- PrismaModule&#45;&gt;UserModule -->
<g id="edge13" class="edge">
<title>PrismaModule&#45;&gt;UserModule</title>
<path fill="none" stroke="black" d="M545,-198.24C545,-236.99 545,-324 545,-324 545,-324 544.39,-324 544.39,-324"/>
<polygon fill="black" stroke="black" points="548.99,-320.5 538.99,-324 548.99,-327.5 548.99,-320.5"/>
</g>
<!-- PrismaModule&#45;&gt;AppModule -->
<g id="edge2" class="edge">
<title>PrismaModule&#45;&gt;AppModule</title>
<path fill="none" stroke="black" d="M546.74,-198.18C546.74,-198.18 546.74,-360.71 546.74,-360.71"/>
<polygon fill="black" stroke="black" points="543.24,-360.71 546.74,-370.71 550.24,-360.71 543.24,-360.71"/>
</g>
<!-- PrismaService  -->
<g id="node9" class="node">
<title>PrismaService </title>
<polygon fill="#fb8072" stroke="black" points="977.36,-274 876.64,-274 876.64,-238 977.36,-238 977.36,-274"/>
<text text-anchor="middle" x="927" y="-251.8" font-family="Times,serif" font-size="14.00">PrismaService </text>
</g>
<!-- PrismaModule&#45;&gt;PrismaService  -->
<g id="edge9" class="edge">
<title>PrismaModule&#45;&gt;PrismaService </title>
<path fill="none" stroke="black" stroke-dasharray="5,2" d="M541.51,-198.24C541.51,-205.43 541.51,-212 541.51,-212 541.51,-212 927,-212 927,-212 927,-212 927,-227.85 927,-227.85"/>
<polygon fill="black" stroke="black" points="923.5,-227.85 927,-237.85 930.5,-227.85 923.5,-227.85"/>
</g>
<!-- ScheduleModule -->
<g id="node3" class="node">
<title>ScheduleModule</title>
<polygon fill="#8dd3c7" stroke="black" points="679.37,-198 676.37,-202 655.37,-202 652.37,-198 568.63,-198 568.63,-162 679.37,-162 679.37,-198"/>
<text text-anchor="middle" x="624" y="-175.8" font-family="Times,serif" font-size="14.00">ScheduleModule</text>
</g>
<!-- ScheduleModule&#45;&gt;AppModule -->
<g id="edge3" class="edge">
<title>ScheduleModule&#45;&gt;AppModule</title>
<path fill="none" stroke="black" d="M584.2,-198.18C584.2,-198.18 584.2,-360.71 584.2,-360.71"/>
<polygon fill="black" stroke="black" points="580.7,-360.71 584.2,-370.71 587.7,-360.71 580.7,-360.71"/>
</g>
<!-- UserModule&#45;&gt;AppModule -->
<g id="edge4" class="edge">
<title>UserModule&#45;&gt;AppModule</title>
<path fill="none" stroke="black" d="M527.58,-342.11C527.58,-342.11 527.58,-360.99 527.58,-360.99"/>
<polygon fill="black" stroke="black" points="524.08,-360.99 527.58,-370.99 531.08,-360.99 524.08,-360.99"/>
</g>
<!-- AppService -->
<g id="node6" class="node">
<title>AppService</title>
<ellipse fill="#fdb462" stroke="black" cx="371" cy="-324" rx="56.74" ry="18"/>
<text text-anchor="middle" x="371" y="-319.8" font-family="Times,serif" font-size="14.00">AppService</text>
</g>
<!-- AppService&#45;&gt;AppModule -->
<g id="edge5" class="edge">
<title>AppService&#45;&gt;AppModule</title>
<path fill="none" stroke="black" d="M371,-342.11C371,-361.34 371,-389 371,-389 371,-389 506.03,-389 506.03,-389"/>
<polygon fill="black" stroke="black" points="506.03,-392.5 516.03,-389 506.03,-385.5 506.03,-392.5"/>
</g>
<!-- AuthService -->
<g id="node7" class="node">
<title>AuthService</title>
<ellipse fill="#fdb462" stroke="black" cx="215" cy="-180" rx="59.11" ry="18"/>
<text text-anchor="middle" x="215" y="-175.8" font-family="Times,serif" font-size="14.00">AuthService</text>
</g>
<!-- AuthService&#45;&gt;AuthModule -->
<g id="edge7" class="edge">
<title>AuthService&#45;&gt;AuthModule</title>
<path fill="none" stroke="black" d="M274.42,-180C318.51,-180 371,-180 371,-180 371,-180 371,-250 371,-250 371,-250 442.28,-250 442.28,-250"/>
<polygon fill="black" stroke="black" points="442.28,-253.5 452.28,-250 442.28,-246.5 442.28,-253.5"/>
</g>
<!-- JwtStrategy -->
<g id="node8" class="node">
<title>JwtStrategy</title>
<ellipse fill="#fdb462" stroke="black" cx="81" cy="-180" rx="56.76" ry="18"/>
<text text-anchor="middle" x="81" y="-175.8" font-family="Times,serif" font-size="14.00">JwtStrategy</text>
</g>
<!-- JwtStrategy&#45;&gt;AuthModule -->
<g id="edge8" class="edge">
<title>JwtStrategy&#45;&gt;AuthModule</title>
<path fill="none" stroke="black" d="M81,-198.04C81,-210.56 81,-225 81,-225 81,-225 481.41,-225 481.41,-225 481.41,-225 481.41,-227.97 481.41,-227.97"/>
<polygon fill="black" stroke="black" points="477.91,-227.97 481.41,-237.97 484.91,-227.97 477.91,-227.97"/>
</g>
<!-- PrismaService -->
<g id="node10" class="node">
<title>PrismaService</title>
<ellipse fill="#fdb462" stroke="black" cx="786" cy="-256" rx="66.63" ry="18"/>
<text text-anchor="middle" x="786" y="-251.8" font-family="Times,serif" font-size="14.00">PrismaService</text>
</g>
<!-- PrismaService&#45;&gt;PrismaModule -->
<g id="edge10" class="edge">
<title>PrismaService&#45;&gt;PrismaModule</title>
<path fill="none" stroke="black" d="M722.97,-262C652.6,-262 548.48,-262 548.48,-262 548.48,-262 548.48,-208.2 548.48,-208.2"/>
<polygon fill="black" stroke="black" points="551.98,-208.2 548.48,-198.2 544.98,-208.2 551.98,-208.2"/>
</g>
<!-- ScheduleService -->
<g id="node11" class="node">
<title>ScheduleService</title>
<ellipse fill="#fdb462" stroke="black" cx="624" cy="-104" rx="75.28" ry="18"/>
<text text-anchor="middle" x="624" y="-99.8" font-family="Times,serif" font-size="14.00">ScheduleService</text>
</g>
<!-- ScheduleService&#45;&gt;ScheduleModule -->
<g id="edge11" class="edge">
<title>ScheduleService&#45;&gt;ScheduleModule</title>
<path fill="none" stroke="black" d="M624,-122.01C624,-122.01 624,-151.85 624,-151.85"/>
<polygon fill="black" stroke="black" points="620.5,-151.85 624,-161.85 627.5,-151.85 620.5,-151.85"/>
</g>
<!-- UserService -->
<g id="node12" class="node">
<title>UserService</title>
<ellipse fill="#fdb462" stroke="black" cx="216" cy="-256" rx="58.44" ry="18"/>
<text text-anchor="middle" x="216" y="-251.8" font-family="Times,serif" font-size="14.00">UserService</text>
</g>
<!-- UserService&#45;&gt;UserModule -->
<g id="edge14" class="edge">
<title>UserService&#45;&gt;UserModule</title>
<path fill="none" stroke="black" d="M271.01,-262C337.25,-262 439.7,-262 439.7,-262 439.7,-262 439.7,-324 439.7,-324 439.7,-324 442.76,-324 442.76,-324"/>
<polygon fill="black" stroke="black" points="442.76,-327.5 452.76,-324 442.76,-320.5 442.76,-327.5"/>
</g>
</g>
</svg>
